<svg xmlns="http://www.w3.org/2000/svg" width="512" height="512" viewBox="0 0 512 512" version="1.1"><path d="" stroke="none" fill="#fafafa" fill-rule="evenodd"/><path d="M 238 1.492 C 217.361 5.631, 199.604 15.540, 181.636 32.945 C 171.848 42.427, 160.558 56.391, 153.944 67.198 C 150.113 73.458, 148.910 73.993, 138.625 74.011 C 130.192 74.025, 109.257 77.388, 99 80.375 C 73.783 87.720, 51.844 102.149, 39.418 119.563 C 15.826 152.624, 15.286 196.012, 37.887 242.572 L 43.677 254.500 37.964 266 C 28.180 285.695, 22.704 304.829, 21.333 324.109 C 20.817 331.355, 21.007 333.203, 22.530 335.781 C 26.996 343.342, 37.622 343.257, 41.339 335.631 C 42.179 333.909, 43.331 327.775, 43.901 322 C 44.471 316.225, 45.828 308.125, 46.917 304 C 48.927 296.390, 55.479 279.172, 56.928 277.690 C 57.364 277.244, 60.146 280.168, 63.110 284.188 C 71.948 296.172, 87.850 313.770, 101.310 326.460 L 113.947 338.374 115.550 345.937 C 119.713 365.583, 128.729 394.522, 135.132 408.794 C 136.709 412.310, 138 415.348, 138 415.546 C 138 416.952, 110.530 412.045, 101 408.937 C 93.303 406.426, 79.448 399.730, 75.595 396.658 C 73.168 394.722, 72.984 394.172, 73.933 391.676 C 77.664 381.864, 72.105 365.990, 62.323 358.521 C 53.028 351.423, 38.762 349.899, 28.787 354.937 C 23.172 357.773, 16.493 364.134, 13.988 369.032 C 9.626 377.560, 9.626 390.440, 13.988 398.968 C 16.491 403.861, 23.169 410.224, 28.787 413.069 C 35.439 416.437, 46.551 416.927, 53.797 414.171 L 59.094 412.156 64.797 415.941 C 83.495 428.349, 110.242 436.382, 137.202 437.689 L 149.904 438.304 153.645 444.365 C 169.674 470.334, 193.142 492.638, 215.417 503.073 C 229.575 509.705, 238.205 511.496, 256 511.496 C 273.795 511.496, 282.425 509.705, 296.583 503.073 C 318.884 492.626, 342.325 470.337, 358.399 444.295 L 362.183 438.164 370.841 437.596 C 404.191 435.406, 427.527 430.201, 434.285 423.442 C 438.512 419.215, 438.591 413.009, 434.474 408.566 C 430.692 404.486, 427.692 404.352, 417.070 407.791 C 404.960 411.711, 394.992 413.716, 383.227 414.596 L 373.953 415.290 376.845 408.846 C 383.271 394.524, 392.280 365.615, 396.450 345.937 L 398.053 338.374 410.690 326.460 C 424.150 313.770, 440.052 296.172, 448.890 284.188 C 451.854 280.168, 454.636 277.244, 455.072 277.690 C 456.529 279.180, 463.078 296.410, 465.056 303.956 C 467.886 314.758, 469.323 328.306, 468.622 337.594 C 467.726 349.482, 467.073 352, 464.886 352 C 463.860 352, 460.780 352.852, 458.040 353.893 C 442.572 359.770, 433.703 376.979, 438.202 392.384 C 442.614 407.487, 455.587 416.669, 471.326 415.827 C 479.836 415.372, 485.925 412.661, 492.066 406.591 C 497.200 401.516, 499.513 397.088, 500.875 389.718 C 502.828 379.155, 499.665 368.919, 492.154 361.496 C 488.108 357.498, 488.104 357.485, 489.232 352.996 C 491.088 345.608, 490.744 317.935, 488.667 307.597 C 486.104 294.839, 480.626 279.264, 474.036 266 L 468.323 254.500 474.113 242.572 C 482.895 224.481, 488.180 206.811, 490.086 189.168 C 494.730 146.178, 474.716 109.030, 436.368 89.460 C 414.958 78.534, 391.390 73.787, 358.500 73.775 C 327.283 73.763, 296.241 78.955, 263.750 89.620 L 256 92.164 248.250 89.626 C 228.478 83.151, 206.265 78.090, 188.500 76.015 C 183 75.372, 177.917 74.662, 177.205 74.437 C 173.550 73.283, 199.492 44.469, 211.090 36.801 C 219.107 31.501, 229.843 26.292, 236.634 24.407 C 244.447 22.239, 263.790 21.582, 271.449 23.224 L 277.397 24.500 277.130 30.156 C 276.453 44.514, 285.667 58.071, 299.144 62.548 C 306.161 64.878, 316.981 64.211, 323.213 61.063 C 328.828 58.227, 335.507 51.866, 338.012 46.968 C 342.374 38.440, 342.374 25.560, 338.012 17.032 C 335.509 12.139, 328.831 5.776, 323.213 2.931 C 315.803 -0.821, 305.285 -0.978, 296.507 2.534 C 289.824 5.208, 289.575 5.232, 284.591 3.696 C 272.010 -0.182, 251.242 -1.164, 238 1.492 M 304.500 23.208 C 299.725 25.946, 298.089 31.279, 300.479 36.315 C 305.022 45.888, 319 42.631, 319 32 C 319 24.374, 310.963 19.501, 304.500 23.208 M 117 43 L 117 54 128 54 L 139 54 139 43 L 139 32 128 32 L 117 32 117 43 M 373 43 L 373 54 384 54 L 395 54 395 43 L 395 32 384 32 L 373 32 373 43 M 129.500 96.673 C 121.533 97.663, 104.868 101.449, 98.554 103.702 C 65.199 115.606, 46.514 138.619, 43.505 171.500 C 42.281 184.871, 46.609 207.058, 53.804 224.301 L 57.500 233.157 60 229.950 C 74.301 211.605, 92.782 191.700, 106.375 180 C 113.918 173.508, 113.930 173.491, 115.540 166 C 119.835 146.022, 128.769 117.389, 135.132 103.206 C 136.709 99.690, 138 96.631, 138 96.407 C 138 95.965, 134.253 96.082, 129.500 96.673 M 160.632 100.750 C 154.793 112.297, 141.131 149.464, 142.297 150.630 C 142.460 150.793, 146.623 148.219, 151.547 144.908 C 167.196 134.388, 186.965 122.884, 204.819 113.908 C 222.065 105.237, 222.124 105.196, 218.819 104.161 C 209.570 101.264, 176.356 96, 167.330 96 C 163.208 96, 162.936 96.193, 160.632 100.750 M 327.570 97.592 C 316.368 99.121, 298.179 102.596, 293.181 104.161 C 289.876 105.196, 289.934 105.237, 307.181 113.912 C 325.262 123.007, 341.591 132.397, 356 141.986 C 360.675 145.097, 365.036 147.958, 365.692 148.344 C 368.208 149.826, 356.768 119.449, 348.964 103.929 C 344.357 94.765, 345.592 95.131, 327.570 97.592 M 371.471 99.250 C 372.224 101.037, 374.501 106.325, 376.530 111 C 381.279 121.936, 388.806 144.157, 393.026 159.700 L 396.339 171.899 405.216 179.633 C 420.028 192.537, 437.399 211.220, 452 229.950 L 454.500 233.157 458.196 224.301 C 466.157 205.222, 469.962 183.697, 468.092 168.319 C 463.234 128.366, 433.891 103.583, 383.678 97.022 C 379.375 96.460, 374.561 96, 372.979 96 C 370.119 96, 370.110 96.019, 371.471 99.250 M 244 120.107 C 206.274 135.758, 164.185 160.634, 136.361 183.725 C 134.621 185.169, 133.927 187.645, 132.642 197 C 127.411 235.060, 127.403 276.204, 132.618 314.500 L 134.252 326.500 138.376 329.646 C 140.644 331.377, 146.100 335.537, 150.500 338.892 C 154.900 342.246, 158.838 344.993, 159.250 344.995 C 159.662 344.998, 160 341.832, 160 337.960 C 160 329.908, 161.859 325.343, 167.162 320.371 C 168.998 318.650, 181.446 309.961, 194.823 301.062 C 216.583 286.587, 219.010 284.703, 217.848 283.191 C 217.134 282.261, 215.223 279.934, 213.603 278.020 C 209.357 273.004, 204.266 261.371, 203.057 253.923 C 201.523 244.465, 201.778 221.718, 203.511 213.500 C 205.781 202.737, 210.290 194.544, 218.417 186.417 C 226.650 178.184, 234.747 173.777, 246 171.403 C 273.897 165.519, 302.423 184.737, 308.489 213.500 C 310.222 221.718, 310.477 244.465, 308.943 253.923 C 307.734 261.371, 302.643 273.004, 298.397 278.020 C 296.777 279.934, 294.866 282.261, 294.152 283.191 C 292.990 284.703, 295.417 286.587, 317.177 301.062 C 330.554 309.961, 343.002 318.650, 344.838 320.371 C 350.141 325.343, 352 329.908, 352 337.960 C 352 341.832, 352.268 345, 352.596 345 C 353.507 345, 358.590 341.315, 368.615 333.386 L 377.731 326.177 378.917 318.339 C 383.403 288.690, 384.531 245.071, 381.497 218.500 C 379.429 200.386, 376.647 185.485, 374.952 183.443 C 370.232 177.755, 333.231 152.887, 312.500 141.468 C 292.592 130.502, 259.906 115.915, 255.619 116.083 C 254.454 116.128, 249.225 117.939, 244 120.107 M 250.932 193.074 C 245.010 193.992, 237.337 197.947, 233.304 202.161 C 231.546 203.997, 228.847 208.200, 227.305 211.500 C 224.590 217.311, 224.502 218.019, 224.501 234 C 224.500 253.913, 225.652 258.270, 233.064 266.380 C 239.664 273.601, 246.038 276.381, 256 276.381 C 265.962 276.381, 272.336 273.601, 278.936 266.380 C 286.352 258.265, 287.502 253.912, 287.490 234 C 287.480 218.024, 287.391 217.305, 284.659 211.374 C 278.578 198.169, 265.132 190.873, 250.932 193.074 M 97.606 219.929 C 87.782 230.731, 73.196 248.908, 70.867 253.252 C 69.843 255.161, 73.729 261.600, 83.389 274 C 89.851 282.295, 108.160 303.173, 108.593 302.741 C 108.773 302.560, 108.454 298.157, 107.882 292.956 C 106.493 280.317, 106.503 232.117, 107.897 219.089 C 108.510 213.363, 108.873 208.540, 108.704 208.371 C 108.535 208.202, 103.541 213.403, 97.606 219.929 M 403.469 215 C 405.482 239.438, 405.918 256.788, 405 275.990 C 404.456 287.377, 403.727 298.113, 403.381 299.847 C 403.034 301.581, 402.986 303, 403.273 303 C 404.012 303, 422.533 281.802, 428.611 274 C 431.396 270.425, 435.583 264.661, 437.914 261.192 C 442.117 254.938, 442.139 254.860, 440.410 252.192 C 434.480 243.040, 422.408 228.466, 407.676 212.672 L 402.851 207.500 403.469 215 M 0 256 L 0 267 11 267 L 22 267 22 256 L 22 245 11 245 L 0 245 0 256 M 490 256 L 490 267 501 267 L 512 267 512 256 L 512 245 501 245 L 490 245 490 256 M 211.250 316.702 L 182 336.324 182 348.416 L 182 360.508 193.906 367.281 C 218.209 381.107, 253.937 396.770, 258.191 395.463 C 269.513 391.986, 299.119 378.041, 318.249 367.174 L 329.998 360.500 329.999 348.412 L 330 336.324 300.542 316.688 L 271.084 297.052 265.292 298.139 C 260.099 299.114, 247.772 298.797, 242.500 297.553 C 241.100 297.223, 231.721 302.970, 211.250 316.702 M 142.548 363.250 C 148.364 382.418, 155.120 400.349, 160.632 411.250 C 163.437 416.798, 162.889 416.705, 180.234 414.554 C 194.303 412.809, 201.666 411.537, 213.361 408.831 L 222.221 406.781 204.861 398.097 C 186.085 388.705, 166.878 377.473, 152.320 367.370 C 147.271 363.867, 142.853 361, 142.503 361 C 142.152 361, 142.172 362.012, 142.548 363.250 M 360 367.106 C 346.926 376.354, 326.243 388.491, 307.563 397.878 C 288.259 407.579, 288.265 406.441, 307.500 410.031 C 319.659 412.300, 340.500 414.978, 346.102 414.991 C 349.580 415, 349.810 414.768, 352.784 408.250 C 359.578 393.358, 363.659 382.343, 369.452 363.250 C 369.828 362.012, 369.767 361.021, 369.317 361.047 C 368.868 361.073, 364.675 363.800, 360 367.106 M 35.923 376.923 C 27.809 385.037, 36.895 397.650, 47.405 392.861 C 49.755 391.791, 53 386.651, 53 384 C 53 381.349, 49.755 376.209, 47.405 375.139 C 43.028 373.144, 39.090 373.756, 35.923 376.923 M 464.500 375.208 C 459.725 377.946, 458.089 383.279, 460.479 388.315 C 465.022 397.888, 479 394.631, 479 384 C 479 376.374, 470.963 371.501, 464.500 375.208 M 250.500 421.626 C 236.512 426.820, 199.203 435.156, 183.750 436.541 C 179.488 436.923, 176 437.439, 176 437.688 C 176 439.546, 187.228 453.266, 195.487 461.500 C 209.335 475.307, 222.795 483.782, 237.169 487.746 C 245.896 490.152, 266.104 490.152, 274.831 487.746 C 289.220 483.778, 302.685 475.295, 316.492 461.500 C 326.316 451.684, 337.608 437.461, 336.210 436.663 C 335.819 436.441, 332.125 435.956, 328 435.586 C 312.529 434.199, 282.426 427.838, 264 422.063 C 256.409 419.684, 255.785 419.664, 250.500 421.626 M 117 469 L 117 480 128 480 L 139 480 139 469 L 139 458 128 458 L 117 458 117 469 M 373 469 L 373 480 384 480 L 395 480 395 469 L 395 458 384 458 L 373 458 373 469" stroke="none" fill="#040404" fill-rule="evenodd"/></svg>